<svg id="レイヤー_1" data-name="レイヤー 1" xmlns="http://www.w3.org/2000/svg" viewBox="0 0 577 513"><defs><style>.cls-1,.cls-2{stroke:#fff;stroke-miterlimit:10;}.cls-2{fill:#ffe600;}</style></defs><rect class="cls-1" x="228.5" y="172" width="116" height="295"/><path class="cls-2" d="M569.52,440c18.45,32-4.71,72-41.58,72H48.05c-36.93,0-60-40.05-41.57-72L246.42,24c18.47-32,64.72-32,83.16,0L569.52,440ZM288,354a46,46,0,1,0,46,46A46,46,0,0,0,288,354ZM244.33,188.65l7.41,136a12,12,0,0,0,12,11.35h48.54a12,12,0,0,0,12-11.35l7.42-136a12,12,0,0,0-12-12.65H256.31a12,12,0,0,0-12,12.65Z" transform="translate(0.5 0.5)"/></svg>